<?xml version="1.0" ?><!DOCTYPE svg  PUBLIC '-//W3C//DTD SVG 1.1//EN'  'http://www.w3.org/Graphics/SVG/1.1/DTD/svg11.dtd'><svg enable-background="new 0 0 512 512" id="Layer_1" version="1.1" viewBox="0 0 512 512" xml:space="preserve" xmlns="http://www.w3.org/2000/svg" xmlns:xlink="http://www.w3.org/1999/xlink"><g><path d="M92.8,473.9c-5.2-5.3-8-12.1-11.7-18.4c-14.1-23.5-28-47.2-42-70.8C28,366,16.9,347.2,5.8,328.5   c-1.7-2.8-1.5-5.4,0.2-8.3c23.4-41,46.8-82.1,70.1-123.1c23.2-40.9,46.4-81.9,69.6-122.8c6.2-10.8,12.4-21.6,18.7-32.4   c0.8-1.4,1.2-3.3,3.4-3.1c0.9,1.8,1.7,3.6,2.7,5.3c12.7,22.1,25.5,44.3,38.2,66.4c13.9,24.2,27.7,48.3,41.5,72.5   c-0.1,1.2,0.7,1.9,1.7,2.4c0.3,1.8,1.1,3.3,2.4,4.6c-0.1,1.2,0.5,2,1.6,2.5c0.2,0.8,0.4,1.7,0.7,2.5c-0.1,0.6-0.1,1.1-0.2,1.7   c-1.8,0.5-2.4,2.1-3.3,3.5c-16.8,26.9-32.2,54.6-48.2,82c-8.2,14-16.2,28.2-24.3,42.3c0,0-0.3,0.1-0.3,0.1l0,0.4   c-0.8,0.8-1.9,1.5-2.4,2.4c-9.5,16.3-19,32.7-28.5,49c-13.1,22.7-26.3,45.3-39.3,68.1c-4.6,8.1-9.9,15.7-13.4,24.3   C95.4,470.5,94.1,472.2,92.8,473.9z" fill="#019957"/><path d="M256.5,195c-0.2-0.8-0.4-1.7-0.7-2.5c0.2-1.3-0.1-2.3-1.6-2.5c-1.3-1.3-2.1-2.8-2.4-4.6   c0.2-1.3-0.2-2.3-1.7-2.4c-13.8-24.2-27.6-48.4-41.5-72.5c-12.7-22.1-25.5-44.3-38.2-66.4c-1-1.7-1.8-3.5-2.7-5.3   c1.7-1.1,3.6-0.7,5.3-0.7c55.8,0,111.6,0,167.4-0.1c4.2,0,6.5,1.4,8.6,5.1c15.3,27.3,30.8,54.4,46.2,81.6   c16.7,29.3,33.3,58.7,49.9,88c16.7,29.3,33.4,58.6,50.1,88c4.3,7.6,8.5,15.4,12.7,23.1c0,0.5,0,1-0.1,1.5c-2.3,0.4-4.6,0.5-6.9,0   c-0.2-2.3-2-2.8-3.8-3.3c-10.1-3-20.3-6-30.4-9c-12.6-3.6-25.1-7.3-37.7-10.8c-15-4.2-29.9-8.6-44.8-13.1   c-20.6-6.2-41.3-12.2-62.1-17.8c-8.4-2.3-16.4-6.2-25.4-6.1l0,0c-0.1-2-0.4-3.8-2.8-4.1l-0.1-0.1c-0.2-0.3-0.5-0.6-0.7-1   c-0.1-0.3-0.2-0.6-0.4-0.9c-0.2-0.3-0.3-0.7-0.5-1c-0.2-0.5-0.3-1-0.5-1.5c0.1-1.4-0.3-2.4-1.9-2.6c-1.4-1.1-1.6-2.8-2.1-4.4   c0.1-1.4-0.4-2.4-1.9-2.6c-0.3-0.6-0.6-1.3-0.9-1.9c-0.4-2.9-0.8-5.8-4.1-7l-0.1-0.1c-0.2-0.3-0.4-0.6-0.6-0.9   c-0.1-0.5-0.3-1-0.4-1.5c0.2-1.4-0.4-2.4-1.9-2.6c-0.4-0.6-0.7-1.2-1.1-1.9c-0.2-0.3-0.4-0.7-0.5-1c-0.2-0.5-0.3-1-0.5-1.5   c0.1-1.4-0.3-2.4-1.9-2.6c-1.3-1.2-1.6-2.9-2.1-4.4c-0.1-2-0.3-4-2.9-4.4l-0.1-0.1c-0.2-0.3-0.5-0.6-0.7-0.9   c-0.1-0.5-0.2-1-0.4-1.5c0.2-1.5-0.4-2.4-1.9-2.6c-0.4-0.6-0.7-1.3-1.1-1.9c-0.2-0.3-0.4-0.6-0.6-0.9c-0.1-0.5-0.3-1-0.4-1.5   c0.2-1.4-0.3-2.4-1.9-2.6c-0.4-0.6-0.7-1.2-1.1-1.8c-0.2-0.3-0.3-0.6-0.5-1c-0.2-0.5-0.3-1-0.5-1.5c0.2-1.4-0.3-2.4-1.9-2.6   l-0.2-0.2l0.1-0.3C258,196.3,257.9,195.3,256.5,195z" fill="#FBCC37"/><path d="M501.1,325.3c2.3,0.5,4.6,0.4,6.9,0c0.2,0.3,0.5,0.4,0.9,0.4c-1.7,6.2-5.9,11.1-9.2,16.4   c-15.8,25.6-31.8,51-47.7,76.5c-10.8,17.2-21.6,34.3-32.3,51.6c-2.5,4.1-5.6,5.8-10.6,5.8c-102.8-0.1-205.6-0.1-308.5-0.1   c-2.8,0-5.7,0.5-7.9-2c1.3-1.7,2.6-3.3,3.9-5c2,0.4,3.4-0.5,4.9-1.8c13.9-13.3,28-26.4,41.8-39.9c12.5-12.2,25.2-24.1,37.9-36   c17.7-16.5,35-33.6,52.5-50.4c1.6-1.5,3.3-2.8,4.8-4.2c3.5-3.4,8.2-5.8,9.4-11.1c24.3-0.1,48.6-0.1,72.9-0.2c2.6,0,5.3,0.3,7.9-0.6   c2.5,1.2,5.1,1.1,7.8,1.2c53,0,106.1,0,159.1,0C497.5,325.8,499.4,326.3,501.1,325.3z" fill="#2971ED"/><path d="M508.9,325.7c-0.3,0-0.6-0.1-0.9-0.4c0-0.5,0-1,0.1-1.5C508.3,324.4,508.6,325,508.9,325.7z" fill="#EEC53A"/><path d="M180.9,324.9c20.2,0.1,40.4,0.2,60.6,0.3c2.1,0,4.3,0.2,6.4,0.2c-1.3,5.3-6,7.7-9.4,11.1   c-1.5,1.5-3.3,2.8-4.8,4.2c-17.5,16.8-34.8,33.8-52.5,50.4c-12.7,11.9-25.5,23.8-37.9,36c-13.8,13.5-27.9,26.6-41.8,39.9   c-1.4,1.4-2.8,2.3-4.9,1.8c3.5-8.6,8.9-16.3,13.4-24.3c12.9-22.8,26.1-45.4,39.3-68.1c9.5-16.4,19-32.7,28.5-49   c0.6-1,1.6-1.6,2.4-2.4C180.5,325,180.7,324.9,180.9,324.9z" fill="#286DE3"/><path d="M250.2,183c1.5,0.2,1.9,1.1,1.7,2.4C250.8,184.9,250.1,184.2,250.2,183z" fill="#EEC53A"/><path d="M254.2,190c1.5,0.2,1.8,1.2,1.6,2.5C254.8,192,254.2,191.2,254.2,190z" fill="#EEC53A"/><path d="M257.9,197.5c-0.5-0.3-1-0.5-1.6-0.8c0.1-0.6,0.1-1.1,0.2-1.7C257.9,195.3,258,196.3,257.9,197.5z" fill="#EEC53A"/><path d="M180.9,324.9c-0.2,0.1-0.4,0.1-0.6,0.1c0,0,0-0.4,0-0.4s0.3-0.1,0.3-0.1c0,0,0.3,0.1,0.3,0.1L180.9,324.9z" fill="#2971ED"/><path d="M328.8,324.6c-2-6.9-6.4-12.6-9.8-18.7c-6.8-12.3-14-24.4-21-36.5c-0.7-1.3-1.6-2.6-1.2-4.2   c9-0.1,17,3.9,25.4,6.1c20.8,5.6,41.5,11.6,62.1,17.8c14.9,4.5,29.8,8.9,44.8,13.1c12.6,3.5,25.2,7.2,37.7,10.8   c10.2,2.9,20.3,6,30.4,9c1.8,0.5,3.6,1,3.8,3.3c-1.7,1-3.6,0.5-5.4,0.5c-53,0-106.1,0-159.1,0C334,325.8,331.3,325.8,328.8,324.6z" fill="#EEC53A"/><path d="M285.1,245c-2.5-1.7-3.6-4.1-4.1-7C284.3,239.2,284.7,242.2,285.1,245z" fill="#EEC53A"/><path d="M271.9,221.5c-2.1-0.7-2.7-2.4-2.9-4.4C271.6,217.4,271.8,219.5,271.9,221.5z" fill="#EEC53A"/><path d="M296.8,265.1c-2.2-0.5-2.6-2.2-2.8-4.1C296.5,261.4,296.8,263.2,296.8,265.1z" fill="#EEC53A"/><path d="M259.9,200.5c-1.3-0.4-2.1-1.2-1.9-2.6C259.6,198.1,260,199.1,259.9,200.5z" fill="#EEC53A"/><path d="M263.9,207.5c-1.3-0.4-2-1.2-1.9-2.6C263.6,205.1,264,206.1,263.9,207.5z" fill="#EEC53A"/><path d="M267.9,214.5c-1.3-0.4-2.1-1.1-1.9-2.6C267.5,212.1,268.1,213,267.9,214.5z" fill="#EEC53A"/><path d="M275.9,228.5c-1.3-0.4-2.1-1.2-1.9-2.6C275.6,226.1,276,227.1,275.9,228.5z" fill="#EEC53A"/><path d="M279.9,235.5c-1.3-0.4-2-1.2-1.9-2.6C279.5,233.1,280,234.1,279.9,235.5z" fill="#EEC53A"/><path d="M287.9,249.5c-1.3-0.4-2.1-1.1-1.9-2.6C287.5,247.1,288,248.1,287.9,249.5z" fill="#EEC53A"/><path d="M291.9,256.5c-1.4-0.4-2.1-1.2-1.9-2.6C291.6,254.1,292,255.1,291.9,256.5z" fill="#EEC53A"/><path d="M260.9,203.1c-0.2-0.3-0.3-0.7-0.5-1C260.6,202.4,260.7,202.7,260.9,203.1z" fill="#EEC53A"/><path d="M264.9,210c-0.2-0.3-0.4-0.6-0.6-0.9C264.5,209.3,264.7,209.7,264.9,210z" fill="#EEC53A"/><path d="M268.9,217c-0.5-0.1-0.8-0.4-0.7-0.9C268.5,216.3,268.7,216.6,268.9,217z" fill="#EEC53A"/><path d="M276.9,231c-0.2-0.3-0.4-0.7-0.5-1C276.5,230.4,276.7,230.7,276.9,231z" fill="#EEC53A"/><path d="M280.9,238c-0.2-0.3-0.4-0.6-0.6-0.9C280.5,237.3,280.7,237.6,280.9,238z" fill="#EEC53A"/><path d="M292.9,259.1c-0.2-0.3-0.4-0.7-0.5-1C292.5,258.4,292.7,258.7,292.9,259.1z" fill="#EEC53A"/><path d="M293.9,261c-0.6-0.1-0.8-0.4-0.7-1C293.5,260.3,293.7,260.6,293.9,261z" fill="#EEC53A"/></g></svg>